# xmcd
# Copyright (C) 1995-1998 Ti Kan
#
# Track frame offsets:
#       150
#       93371
#       159125
#       241206
#
# Disc length: 3788 seconds
#
# Revision: 0
# Processed by: cddbd v1.5.2PL0 Copyright (c) Steve Scherf et al.
# Submitted via: CD-Transfer v1.0
#
DISCID=1f0eca04
DTITLE=Friday Night Life Mixed By Dj René - 
DYEAR=1900
DGENRE=
TTITLE0=House
TTITLE1=Rnbpop
TTITLE2=Pop
TTITLE3=Pump
EXTD=
EXTT0=
EXTT1=
EXTT2=
EXTT3=
PLAYORDER=
